# xmcd CD database file
#
# Track frame offsets:
#	150
#	45345
#	79642
#	112020
#	141165
#
# Disc length: 2089 seconds
#
# Revision: 1
# Processed by: cddbd v1.5.2PL0 Copyright (c) Steve Scherf et al.
# Submitted via: CDex 1.70beta2
#
DISCID=38082705
DTITLE=加古隆 - Legend of The Sea-Myself
DYEAR=1977
DGENRE=Jazz
TTITLE0=Legend of The Sea-Myself
TTITLE1=Inori
TTITLE2=Ants
TTITLE3=Naissance
TTITLE4=Zone
EXTD=YEAR: 1977
EXTT0=
EXTT1=
EXTT2=
EXTT3=
EXTT4=
PLAYORDER=
